<svg width="80" height="66" viewBox="0 0 80 66" fill="none" xmlns="http://www.w3.org/2000/svg">
<path d="M41.2054 0.0123604C41.4993 -0.0484332 41.6816 0.123815 41.8741 0.336593C45.39 4.28818 48.6932 8.42214 52.0267 12.5358C54.7725 15.92 57.4981 19.3346 60.1224 22.8201C60.5175 23.347 60.8924 23.884 61.2572 24.4311C61.6219 24.9783 61.6118 25.0593 61.0444 25.4241C59.5651 26.3866 58.0047 27.2276 56.4443 28.0585C52.6143 30.1153 48.754 32.1012 44.853 34.0061C42.9786 34.918 41.1041 35.8502 39.1688 36.6405C38.8142 36.7824 38.5812 36.7114 38.3279 36.4581C36.6763 34.7762 35.1868 32.9422 33.6771 31.1184C30.6273 27.4404 27.618 23.7117 24.6797 19.9425C22.6836 17.3791 20.647 14.846 18.8131 12.1609C18.3673 11.5023 18.347 11.4821 19.0259 11.0363C20.9814 9.74947 23.0687 8.66532 25.1255 7.5609C28.5705 5.71683 32.056 3.94368 35.5921 2.28199C37.193 1.5322 38.7939 0.77228 40.4556 0.164344C40.6887 0.0630217 40.9318 -0.0281687 41.2054 0.0123604ZM34.6093 27.8558C35.3794 26.6805 36.2001 25.5862 37.3248 24.725C40.2327 22.506 43.2825 20.5099 46.6971 19.1421C47.0011 19.0205 47.2139 18.8077 47.4064 18.5443C47.913 17.8755 48.146 17.0751 48.4905 16.3253C48.6425 15.9808 48.9769 15.4641 48.7641 15.2817C48.4905 15.0486 48.0447 15.4235 47.6799 15.5755C46.0892 16.2544 44.5592 17.0852 42.9178 17.6425C42.4618 17.7945 42.0261 17.8654 41.5398 17.7438C40.6684 17.531 39.8882 17.1156 39.0776 16.7509C38.4596 16.4773 37.8719 16.1531 37.3349 15.7478C37.193 15.6464 37.0005 15.535 37.2336 15.3222C37.8212 14.7953 38.5305 14.461 39.179 14.0253C39.6856 13.6808 40.3948 13.6301 41.0129 13.468C41.7526 13.2654 42.1173 13.3768 42.5023 14.0354C42.7455 14.4407 42.8772 14.39 43.09 14.0455C43.6676 13.1134 44.1438 12.1306 44.5389 11.1072C44.7618 10.5297 44.6504 10.2054 44.1032 9.90145C43.394 9.51643 42.6645 9.40497 41.8437 9.71907C39.7565 10.5297 38.0948 11.8874 36.6459 13.5389C36.4331 13.7821 36.2609 14.0455 36.1292 14.3394C35.6833 15.3526 35.2172 16.3456 34.7917 17.3588C34.3661 18.372 34.4776 18.7165 35.3591 19.4258C35.7847 19.7601 36.2406 20.0438 36.7472 20.2566C37.193 20.4491 37.6591 20.6214 38.2164 20.8544C35.6833 22.5668 34.8322 25.0593 34.6093 27.8558Z" fill="#67BDB2"/>
<path d="M34.6093 27.8561C34.8322 25.0596 35.6834 22.5671 38.2164 20.8446C37.649 20.6217 37.1931 20.4393 36.7472 20.2468C36.2508 20.034 35.7847 19.7604 35.3591 19.4159C34.4776 18.7067 34.3763 18.3622 34.7917 17.349C35.2173 16.3357 35.6834 15.3326 36.1292 14.3295C36.2609 14.0357 36.4331 13.7723 36.6459 13.5291C38.105 11.8775 39.7667 10.5198 41.8438 9.70923C42.6543 9.39513 43.3839 9.49645 44.1033 9.89161C44.6504 10.1956 44.772 10.5299 44.539 11.0973C44.1337 12.1106 43.6574 13.1035 43.09 14.0357C42.8773 14.3802 42.7455 14.4309 42.5024 14.0256C42.1173 13.367 41.7526 13.2657 41.0129 13.4582C40.3949 13.6304 39.6856 13.6709 39.179 14.0154C38.5407 14.4511 37.8213 14.7855 37.2336 15.3124C37.0005 15.5251 37.1931 15.6366 37.3349 15.7379C37.8719 16.1432 38.4697 16.4675 39.0777 16.741C39.8882 17.0957 40.6684 17.5212 41.5398 17.734C42.0261 17.8454 42.4618 17.7846 42.9178 17.6327C44.5592 17.0754 46.0892 16.2547 47.68 15.5657C48.0346 15.4137 48.4905 15.0388 48.7641 15.2718C48.9769 15.4542 48.6425 15.9811 48.4905 16.3155C48.146 17.0653 47.913 17.8556 47.4064 18.5344C47.2139 18.7979 47.0011 19.0106 46.6971 19.1322C43.2826 20.5001 40.2429 22.4961 37.3248 24.7151C36.2001 25.5865 35.3794 26.6808 34.6093 27.8561Z" fill="#91257E"/>
<path d="M8.57806 60.3145L7.81935 58.2396H3.23613L2.47742 60.3145H0.170323L4.28903 49.6306H6.8129L10.9161 60.3145H8.57806ZM3.94839 56.2732H7.09161L5.52774 51.9841L3.94839 56.2732ZM12.0437 60.3145V49.1661H14.0566V60.3145H12.0437ZM23.8409 56.3815C23.8409 56.5983 23.8254 56.877 23.7945 57.0938H17.6783C17.9571 58.0848 18.7932 58.7196 19.939 58.7196C20.899 58.7196 21.6887 58.2706 22.1067 57.7441L23.4538 58.9209C22.6332 59.8964 21.3635 60.5003 19.8771 60.5003C17.3687 60.5003 15.4951 58.7041 15.4951 56.3351C15.4951 53.997 17.3067 52.2319 19.6912 52.2319C22.0603 52.2319 23.8409 53.997 23.8409 56.3815ZM19.6758 53.997C18.6848 53.997 17.9106 54.6474 17.6629 55.6228H21.6887C21.4409 54.6319 20.6512 53.997 19.6758 53.997ZM28.7966 50.8228C28.0844 50.8228 27.6973 51.1635 27.6973 51.8293V52.4177H29.6792V54.2603H27.6973V60.3145H25.6844V54.2603H24.4456V52.4177H25.6844V51.7054C25.6844 50.0641 26.536 48.9803 28.3476 48.9803C28.936 48.9803 29.385 49.0886 29.834 49.3209V51.0861C29.5244 50.9157 29.1992 50.8228 28.7966 50.8228ZM38.8687 49.6306C41.9346 49.6306 44.2262 51.9222 44.2262 54.9725C44.2262 58.0228 41.9346 60.3145 38.8687 60.3145H34.812V49.6306H38.8687ZM38.8533 59.6951C41.532 59.6951 43.5449 57.6667 43.5449 54.9725C43.5449 52.2783 41.532 50.2499 38.8533 50.2499H35.4778V59.6951H38.8533ZM46.6557 50.3893C46.377 50.3893 46.1447 50.1725 46.1447 49.8938C46.1447 49.6151 46.377 49.3983 46.6557 49.3983C46.9344 49.3983 47.1512 49.6151 47.1512 49.8938C47.1512 50.1725 46.9344 50.3893 46.6557 50.3893ZM46.346 60.3145V52.4177H46.9654V60.3145H46.346ZM54.491 60.748C55.9 60.748 56.8755 61.4757 56.922 62.637L56.2871 62.7609C56.2717 61.9093 55.5129 61.3519 54.4136 61.3519H51.162C49.9852 61.3519 49.211 60.6861 49.211 59.7106C49.211 59.0603 49.5517 58.4254 50.1091 58.1312C49.4278 57.5274 49.0097 56.6293 49.0097 55.6228C49.0097 53.6874 50.4962 52.2319 52.4936 52.2319C53.3142 52.2319 54.0575 52.4796 54.6458 52.9132C54.7078 52.0925 55.3271 51.5506 56.2097 51.5506H56.7826V52.139H56.2407C55.5749 52.139 55.1104 52.5725 55.1104 53.2383V53.3157C55.6678 53.9196 55.9929 54.7248 55.9929 55.6228C55.9929 57.5428 54.491 58.9983 52.4936 58.9983C51.7504 58.9983 51.0691 58.797 50.5117 58.4409C50.0936 58.6422 49.8304 59.1067 49.8304 59.5712C49.8304 60.2835 50.4033 60.748 51.2549 60.748H54.491ZM49.6446 55.6228C49.6446 57.2022 50.8678 58.4099 52.4936 58.4099C54.1194 58.4099 55.3581 57.2022 55.3581 55.6228C55.3581 54.028 54.1194 52.8203 52.4936 52.8203C50.8523 52.8203 49.6446 54.028 49.6446 55.6228ZM58.5256 50.3893C58.2469 50.3893 58.0147 50.1725 58.0147 49.8938C58.0147 49.6151 58.2469 49.3983 58.5256 49.3983C58.8044 49.3983 59.0211 49.6151 59.0211 49.8938C59.0211 50.1725 58.8044 50.3893 58.5256 50.3893ZM58.216 60.3145V52.4177H58.8353V60.3145H58.216ZM65.6487 52.9906H63.0319V58.4719C63.0319 59.5248 63.5894 59.8964 64.5029 59.8964C64.9674 59.8964 65.3081 59.788 65.6487 59.6022V60.1906C65.2771 60.3919 64.921 60.5003 64.3945 60.5003C63.1558 60.5003 62.4126 59.8964 62.4126 58.5648V52.9906H60.8023V52.4177H62.4126V50.1725H63.0319V52.4177H65.6487V52.9906ZM74.3211 52.4177H74.9405V60.3145H74.3211V58.1777C73.7018 59.5712 72.3547 60.5003 70.6979 60.5003C68.3753 60.5003 66.6411 58.7196 66.6411 56.3661C66.6411 54.0125 68.3753 52.2319 70.6979 52.2319C72.3547 52.2319 73.7018 53.1609 74.3211 54.5545V52.4177ZM70.8063 59.8964C72.8037 59.8964 74.3211 58.379 74.3211 56.3661C74.3211 54.3532 72.8037 52.8357 70.8063 52.8357C68.7934 52.8357 67.2915 54.3532 67.2915 56.3661C67.2915 58.379 68.7934 59.8964 70.8063 59.8964ZM77.5254 60.3145V49.1661H78.1448V60.3145H77.5254Z" fill="black"/>
</svg>
